<mxfile host="app.diagrams.net" modified="2023-07-06T19:43:27.412Z" agent="Mozilla/5.0 (Windows NT 10.0; Win64; x64) AppleWebKit/537.36 (KHTML, like Gecko) Chrome/114.0.0.0 Safari/537.36" etag="iwu9SMmdZwu6CzMgXYX8" version="21.6.1" type="device" pages="2">
  <diagram name="Page-1" id="fgq7HhjDHoDAMx3-RckN">
    <mxGraphModel dx="640" dy="454" grid="1" gridSize="10" guides="1" tooltips="1" connect="1" arrows="1" fold="1" page="1" pageScale="1" pageWidth="850" pageHeight="1100" math="0" shadow="0">
      <root>
        <mxCell id="0" />
        <mxCell id="1" parent="0" />
        <mxCell id="raskpJbHZ8wxKW6tVWIK-4" style="edgeStyle=orthogonalEdgeStyle;rounded=0;orthogonalLoop=1;jettySize=auto;html=1;exitX=0.5;exitY=1;exitDx=0;exitDy=0;entryX=0.5;entryY=0;entryDx=0;entryDy=0;" parent="1" source="raskpJbHZ8wxKW6tVWIK-1" target="raskpJbHZ8wxKW6tVWIK-2" edge="1">
          <mxGeometry relative="1" as="geometry" />
        </mxCell>
        <mxCell id="raskpJbHZ8wxKW6tVWIK-1" value="&lt;div&gt;&amp;nbsp;* File:&amp;nbsp; &amp;nbsp;main.cpp&lt;/div&gt;&lt;div&gt;&amp;nbsp;* Author: mlehr&lt;/div&gt;&lt;div&gt;&amp;nbsp;* Created on July 6th, 2023, 10:16 AM&lt;/div&gt;&lt;div&gt;&amp;nbsp;* Purpose:&amp;nbsp; Penny For Your Thoughts&lt;/div&gt;" style="rounded=0;whiteSpace=wrap;html=1;" parent="1" vertex="1">
          <mxGeometry x="40" y="80" width="240" height="60" as="geometry" />
        </mxCell>
        <mxCell id="raskpJbHZ8wxKW6tVWIK-6" style="edgeStyle=orthogonalEdgeStyle;rounded=0;orthogonalLoop=1;jettySize=auto;html=1;exitX=0.5;exitY=1;exitDx=0;exitDy=0;entryX=0.5;entryY=0;entryDx=0;entryDy=0;" parent="1" source="raskpJbHZ8wxKW6tVWIK-2" target="raskpJbHZ8wxKW6tVWIK-5" edge="1">
          <mxGeometry relative="1" as="geometry" />
        </mxCell>
        <mxCell id="raskpJbHZ8wxKW6tVWIK-2" value="&lt;div&gt;//System Libraries&lt;/div&gt;&lt;div&gt;#include &amp;lt;iostream&amp;gt;&lt;/div&gt;&lt;div&gt;using namespace std;&lt;/div&gt;" style="rounded=0;whiteSpace=wrap;html=1;" parent="1" vertex="1">
          <mxGeometry x="100" y="180" width="120" height="60" as="geometry" />
        </mxCell>
        <mxCell id="raskpJbHZ8wxKW6tVWIK-8" style="edgeStyle=orthogonalEdgeStyle;rounded=0;orthogonalLoop=1;jettySize=auto;html=1;exitX=0.5;exitY=1;exitDx=0;exitDy=0;entryX=0.5;entryY=0;entryDx=0;entryDy=0;" parent="1" source="raskpJbHZ8wxKW6tVWIK-5" target="raskpJbHZ8wxKW6tVWIK-7" edge="1">
          <mxGeometry relative="1" as="geometry" />
        </mxCell>
        <mxCell id="raskpJbHZ8wxKW6tVWIK-5" value="//User Libraries" style="rounded=0;whiteSpace=wrap;html=1;" parent="1" vertex="1">
          <mxGeometry x="100" y="280" width="120" height="30" as="geometry" />
        </mxCell>
        <mxCell id="raskpJbHZ8wxKW6tVWIK-11" style="edgeStyle=orthogonalEdgeStyle;rounded=0;orthogonalLoop=1;jettySize=auto;html=1;exitX=0.5;exitY=1;exitDx=0;exitDy=0;entryX=0.5;entryY=0;entryDx=0;entryDy=0;" parent="1" source="raskpJbHZ8wxKW6tVWIK-7" target="raskpJbHZ8wxKW6tVWIK-9" edge="1">
          <mxGeometry relative="1" as="geometry" />
        </mxCell>
        <mxCell id="raskpJbHZ8wxKW6tVWIK-7" value="&lt;div&gt;//Global Constants&amp;nbsp;&lt;/div&gt;&lt;div&gt;Math/Science/Conversions only&lt;/div&gt;&lt;div&gt;CNVDOLS=100;//100 pennies to a Dollar&lt;/div&gt;" style="rounded=0;whiteSpace=wrap;html=1;" parent="1" vertex="1">
          <mxGeometry x="30" y="350" width="260" height="40" as="geometry" />
        </mxCell>
        <mxCell id="iiXc8tWTrxgLQF-nSlJ7-3" style="edgeStyle=orthogonalEdgeStyle;rounded=0;orthogonalLoop=1;jettySize=auto;html=1;exitX=0.5;exitY=1;exitDx=0;exitDy=0;entryX=0;entryY=0.5;entryDx=0;entryDy=0;" edge="1" parent="1" source="raskpJbHZ8wxKW6tVWIK-9" target="raskpJbHZ8wxKW6tVWIK-12">
          <mxGeometry relative="1" as="geometry" />
        </mxCell>
        <mxCell id="raskpJbHZ8wxKW6tVWIK-9" value="//Function Prototypes" style="rounded=0;whiteSpace=wrap;html=1;" parent="1" vertex="1">
          <mxGeometry x="85" y="430" width="150" height="30" as="geometry" />
        </mxCell>
        <mxCell id="iiXc8tWTrxgLQF-nSlJ7-2" style="edgeStyle=orthogonalEdgeStyle;rounded=0;orthogonalLoop=1;jettySize=auto;html=1;exitX=1;exitY=0.5;exitDx=0;exitDy=0;entryX=0.5;entryY=0;entryDx=0;entryDy=0;" edge="1" parent="1" source="raskpJbHZ8wxKW6tVWIK-12" target="iiXc8tWTrxgLQF-nSlJ7-1">
          <mxGeometry relative="1" as="geometry" />
        </mxCell>
        <mxCell id="raskpJbHZ8wxKW6tVWIK-12" value="main" style="ellipse;whiteSpace=wrap;html=1;direction=south;" parent="1" vertex="1">
          <mxGeometry x="452.5" y="80" width="65" height="35" as="geometry" />
        </mxCell>
        <mxCell id="raskpJbHZ8wxKW6tVWIK-14" value="&lt;b&gt;&lt;font style=&quot;font-size: 17px;&quot;&gt;First Program Floccharted - Penny for your Thoughts!&lt;/font&gt;&lt;/b&gt;" style="text;html=1;strokeColor=none;fillColor=none;align=center;verticalAlign=middle;whiteSpace=wrap;rounded=0;" parent="1" vertex="1">
          <mxGeometry x="80" y="10" width="460" height="30" as="geometry" />
        </mxCell>
        <mxCell id="iiXc8tWTrxgLQF-nSlJ7-5" style="edgeStyle=orthogonalEdgeStyle;rounded=0;orthogonalLoop=1;jettySize=auto;html=1;exitX=0.5;exitY=1;exitDx=0;exitDy=0;entryX=0.5;entryY=0;entryDx=0;entryDy=0;" edge="1" parent="1" source="iiXc8tWTrxgLQF-nSlJ7-1" target="iiXc8tWTrxgLQF-nSlJ7-4">
          <mxGeometry relative="1" as="geometry" />
        </mxCell>
        <mxCell id="iiXc8tWTrxgLQF-nSlJ7-1" value="&lt;div&gt;&amp;nbsp; &amp;nbsp; //Declare Variables&lt;/div&gt;&lt;div&gt;&amp;nbsp; &amp;nbsp; payDay,//Pay per day in Pennies&lt;/div&gt;&lt;div&gt;&amp;nbsp; &amp;nbsp; &amp;nbsp; &amp;nbsp; &amp;nbsp; &amp;nbsp; &amp;nbsp; &amp;nbsp; &amp;nbsp;totPay,//Total Pay in Pennies&lt;/div&gt;&lt;div&gt;&amp;nbsp; &amp;nbsp; &amp;nbsp; &amp;nbsp; &amp;nbsp; &amp;nbsp; &amp;nbsp; &amp;nbsp; &amp;nbsp;numDays;//Number of Days to work&lt;/div&gt;" style="rounded=0;whiteSpace=wrap;html=1;align=center;" vertex="1" parent="1">
          <mxGeometry x="360" y="150" width="250" height="60" as="geometry" />
        </mxCell>
        <mxCell id="iiXc8tWTrxgLQF-nSlJ7-8" style="edgeStyle=orthogonalEdgeStyle;rounded=0;orthogonalLoop=1;jettySize=auto;html=1;exitX=0.5;exitY=1;exitDx=0;exitDy=0;entryX=0.5;entryY=0;entryDx=0;entryDy=0;" edge="1" parent="1" source="iiXc8tWTrxgLQF-nSlJ7-4" target="iiXc8tWTrxgLQF-nSlJ7-6">
          <mxGeometry relative="1" as="geometry" />
        </mxCell>
        <mxCell id="iiXc8tWTrxgLQF-nSlJ7-4" value="&lt;div&gt;&amp;nbsp; &amp;nbsp; //Initialize Variables&lt;/div&gt;&lt;div&gt;&amp;nbsp; &amp;nbsp; totPay=payDay=1;&lt;/div&gt;" style="rounded=0;whiteSpace=wrap;html=1;" vertex="1" parent="1">
          <mxGeometry x="425" y="240" width="120" height="60" as="geometry" />
        </mxCell>
        <mxCell id="iiXc8tWTrxgLQF-nSlJ7-10" style="edgeStyle=orthogonalEdgeStyle;rounded=0;orthogonalLoop=1;jettySize=auto;html=1;exitX=0.5;exitY=1;exitDx=0;exitDy=0;entryX=0.5;entryY=0;entryDx=0;entryDy=0;" edge="1" parent="1" source="iiXc8tWTrxgLQF-nSlJ7-6" target="iiXc8tWTrxgLQF-nSlJ7-9">
          <mxGeometry relative="1" as="geometry" />
        </mxCell>
        <mxCell id="iiXc8tWTrxgLQF-nSlJ7-6" value="I/O&lt;br&gt;numDays" style="shape=parallelogram;perimeter=parallelogramPerimeter;whiteSpace=wrap;html=1;fixedSize=1;" vertex="1" parent="1">
          <mxGeometry x="425" y="350" width="120" height="60" as="geometry" />
        </mxCell>
        <mxCell id="iiXc8tWTrxgLQF-nSlJ7-12" style="edgeStyle=orthogonalEdgeStyle;rounded=0;orthogonalLoop=1;jettySize=auto;html=1;exitX=1;exitY=0.5;exitDx=0;exitDy=0;entryX=0.5;entryY=0;entryDx=0;entryDy=0;" edge="1" parent="1" source="iiXc8tWTrxgLQF-nSlJ7-9" target="iiXc8tWTrxgLQF-nSlJ7-6">
          <mxGeometry relative="1" as="geometry" />
        </mxCell>
        <mxCell id="1_mrWgJNQFeD1ea0VdYQ-2" style="edgeStyle=orthogonalEdgeStyle;rounded=0;orthogonalLoop=1;jettySize=auto;html=1;exitX=0;exitY=0.5;exitDx=0;exitDy=0;entryX=1;entryY=0.5;entryDx=0;entryDy=0;" edge="1" parent="1" source="iiXc8tWTrxgLQF-nSlJ7-9" target="1_mrWgJNQFeD1ea0VdYQ-1">
          <mxGeometry relative="1" as="geometry" />
        </mxCell>
        <mxCell id="iiXc8tWTrxgLQF-nSlJ7-9" value="!(numDays&amp;gt;=1 &amp;amp;&amp;amp; numDays&amp;lt;=31)" style="rhombus;whiteSpace=wrap;html=1;" vertex="1" parent="1">
          <mxGeometry x="419" y="460" width="132" height="110" as="geometry" />
        </mxCell>
        <mxCell id="iiXc8tWTrxgLQF-nSlJ7-11" value="False" style="text;html=1;align=center;verticalAlign=middle;resizable=0;points=[];autosize=1;strokeColor=none;fillColor=none;" vertex="1" parent="1">
          <mxGeometry x="535" y="478" width="50" height="30" as="geometry" />
        </mxCell>
        <mxCell id="1_mrWgJNQFeD1ea0VdYQ-1" value="Page 2" style="ellipse;whiteSpace=wrap;html=1;aspect=fixed;" vertex="1" parent="1">
          <mxGeometry x="280" y="510" width="60" height="60" as="geometry" />
        </mxCell>
        <mxCell id="1_mrWgJNQFeD1ea0VdYQ-3" style="edgeStyle=orthogonalEdgeStyle;rounded=0;orthogonalLoop=1;jettySize=auto;html=1;exitX=0.5;exitY=1;exitDx=0;exitDy=0;" edge="1" parent="1" source="1_mrWgJNQFeD1ea0VdYQ-1" target="1_mrWgJNQFeD1ea0VdYQ-1">
          <mxGeometry relative="1" as="geometry" />
        </mxCell>
      </root>
    </mxGraphModel>
  </diagram>
  <diagram id="gu75C9IRzxsWrOoVLcol" name="Page-2">
    <mxGraphModel dx="640" dy="454" grid="1" gridSize="10" guides="1" tooltips="1" connect="1" arrows="1" fold="1" page="1" pageScale="1" pageWidth="850" pageHeight="1100" math="0" shadow="0">
      <root>
        <mxCell id="0" />
        <mxCell id="1" parent="0" />
        <mxCell id="ohwEIfDrEkhRl0RR04H0-3" style="edgeStyle=orthogonalEdgeStyle;rounded=0;orthogonalLoop=1;jettySize=auto;html=1;exitX=0.5;exitY=1;exitDx=0;exitDy=0;entryX=0.5;entryY=0;entryDx=0;entryDy=0;" edge="1" parent="1" source="ohwEIfDrEkhRl0RR04H0-1" target="ohwEIfDrEkhRl0RR04H0-2">
          <mxGeometry relative="1" as="geometry" />
        </mxCell>
        <mxCell id="ohwEIfDrEkhRl0RR04H0-1" value="Page 2" style="ellipse;whiteSpace=wrap;html=1;aspect=fixed;" vertex="1" parent="1">
          <mxGeometry x="300" y="40" width="60" height="60" as="geometry" />
        </mxCell>
        <mxCell id="ohwEIfDrEkhRl0RR04H0-5" style="edgeStyle=orthogonalEdgeStyle;rounded=0;orthogonalLoop=1;jettySize=auto;html=1;exitX=0.5;exitY=1;exitDx=0;exitDy=0;entryX=0.5;entryY=0;entryDx=0;entryDy=0;" edge="1" parent="1" source="ohwEIfDrEkhRl0RR04H0-2" target="ohwEIfDrEkhRl0RR04H0-4">
          <mxGeometry relative="1" as="geometry" />
        </mxCell>
        <mxCell id="ohwEIfDrEkhRl0RR04H0-2" value="int nDays=2" style="rounded=0;whiteSpace=wrap;html=1;" vertex="1" parent="1">
          <mxGeometry x="270" y="140" width="120" height="30" as="geometry" />
        </mxCell>
        <mxCell id="ohwEIfDrEkhRl0RR04H0-7" style="edgeStyle=orthogonalEdgeStyle;rounded=0;orthogonalLoop=1;jettySize=auto;html=1;exitX=1;exitY=0.5;exitDx=0;exitDy=0;entryX=0;entryY=0.5;entryDx=0;entryDy=0;" edge="1" parent="1" source="ohwEIfDrEkhRl0RR04H0-4" target="ohwEIfDrEkhRl0RR04H0-6">
          <mxGeometry relative="1" as="geometry" />
        </mxCell>
        <mxCell id="ohwEIfDrEkhRl0RR04H0-13" style="edgeStyle=orthogonalEdgeStyle;rounded=0;orthogonalLoop=1;jettySize=auto;html=1;exitX=0.5;exitY=1;exitDx=0;exitDy=0;entryX=0.578;entryY=-0.061;entryDx=0;entryDy=0;entryPerimeter=0;" edge="1" parent="1" source="ohwEIfDrEkhRl0RR04H0-4" target="ohwEIfDrEkhRl0RR04H0-12">
          <mxGeometry relative="1" as="geometry" />
        </mxCell>
        <mxCell id="ohwEIfDrEkhRl0RR04H0-4" value="nDays&lt;br&gt;&amp;lt;=&lt;br&gt;numDays" style="rhombus;whiteSpace=wrap;html=1;" vertex="1" parent="1">
          <mxGeometry x="280" y="220" width="100" height="90" as="geometry" />
        </mxCell>
        <mxCell id="ohwEIfDrEkhRl0RR04H0-10" style="edgeStyle=orthogonalEdgeStyle;rounded=0;orthogonalLoop=1;jettySize=auto;html=1;exitX=1;exitY=0.5;exitDx=0;exitDy=0;entryX=1;entryY=0.5;entryDx=0;entryDy=0;" edge="1" parent="1" source="ohwEIfDrEkhRl0RR04H0-6" target="ohwEIfDrEkhRl0RR04H0-9">
          <mxGeometry relative="1" as="geometry" />
        </mxCell>
        <mxCell id="ohwEIfDrEkhRl0RR04H0-6" value="payDay*=2&lt;br&gt;totPay+=payDay" style="rounded=0;whiteSpace=wrap;html=1;" vertex="1" parent="1">
          <mxGeometry x="420" y="235" width="120" height="60" as="geometry" />
        </mxCell>
        <mxCell id="ohwEIfDrEkhRl0RR04H0-8" value="True" style="text;html=1;align=center;verticalAlign=middle;resizable=0;points=[];autosize=1;strokeColor=none;fillColor=none;" vertex="1" parent="1">
          <mxGeometry x="370" y="228" width="50" height="30" as="geometry" />
        </mxCell>
        <mxCell id="ohwEIfDrEkhRl0RR04H0-11" style="edgeStyle=orthogonalEdgeStyle;rounded=0;orthogonalLoop=1;jettySize=auto;html=1;exitX=0;exitY=0.5;exitDx=0;exitDy=0;entryX=0.5;entryY=0;entryDx=0;entryDy=0;" edge="1" parent="1" source="ohwEIfDrEkhRl0RR04H0-9" target="ohwEIfDrEkhRl0RR04H0-4">
          <mxGeometry relative="1" as="geometry" />
        </mxCell>
        <mxCell id="ohwEIfDrEkhRl0RR04H0-9" value="nDays++" style="rounded=0;whiteSpace=wrap;html=1;" vertex="1" parent="1">
          <mxGeometry x="450" y="180" width="70" height="30" as="geometry" />
        </mxCell>
        <mxCell id="ohwEIfDrEkhRl0RR04H0-15" style="edgeStyle=orthogonalEdgeStyle;rounded=0;orthogonalLoop=1;jettySize=auto;html=1;exitX=0.5;exitY=1;exitDx=0;exitDy=0;entryX=0.5;entryY=0;entryDx=0;entryDy=0;" edge="1" parent="1" source="ohwEIfDrEkhRl0RR04H0-12" target="ohwEIfDrEkhRl0RR04H0-14">
          <mxGeometry relative="1" as="geometry" />
        </mxCell>
        <mxCell id="ohwEIfDrEkhRl0RR04H0-12" value="I/O&lt;br&gt;totPay" style="shape=parallelogram;perimeter=parallelogramPerimeter;whiteSpace=wrap;html=1;fixedSize=1;" vertex="1" parent="1">
          <mxGeometry x="260" y="360" width="120" height="60" as="geometry" />
        </mxCell>
        <mxCell id="ohwEIfDrEkhRl0RR04H0-14" value="return" style="ellipse;whiteSpace=wrap;html=1;" vertex="1" parent="1">
          <mxGeometry x="275" y="470" width="90" height="50" as="geometry" />
        </mxCell>
      </root>
    </mxGraphModel>
  </diagram>
</mxfile>
